<svg width="14" height="14" viewBox="0 0 14 14" xmlns="http://www.w3.org/2000/svg"><title>linkedin</title><g fill="#FFF" fill-rule="evenodd"><path d="M1.834 0c.917 0 1.68.764 1.68 1.68 0 .458-.152.764-.458 1.07-.305.305-.764.457-1.07.457-.916 0-1.68-.763-1.68-1.68C.153.764.916 0 1.834 0zM3.515 13.135c0 .305-.153.458-.46.458H.46c-.305 0-.458-.153-.458-.458v-8.4c0-.306.153-.46.458-.46h2.598c.306 0 .46.154.46.46v8.4zM13.6 13.135c0 .305-.152.458-.457.458H10.85c-.305 0-.458-.153-.458-.458V7.942c0-.917-.153-1.222-1.07-1.222-1.07 0-1.528.61-1.528 1.833v4.582c0 .305-.153.458-.306.458H5.043c-.306 0-.61-.153-.61-.458V4.582c0-.306.304-.306.61-.306h2.292c.306 0 .46.153.46.46l.152-.154c.61-.306 1.222-.61 2.14-.61 2.29 0 3.667 1.22 3.667 3.36l-.153 5.803z"/></g></svg>