<svg width="17" height="14" viewBox="0 0 17 14" xmlns="http://www.w3.org/2000/svg"><title>twitter</title><path d="M16.505 1.874C16.13 2.5 15.63 3 14.88 3.5v.25c0 2.623-1.25 6.122-4.377 8.12-1.5 1-3.376 1.5-5.25 1.5-1.502 0-3.127-.374-4.378-1.124-.375-.25-.625-.375-.75-.5-.125 0-.125-.125-.125-.25 0-.124.125-.25.25-.25H1c1.25 0 2.376-.25 3.376-.874-1.25-.25-2.125-1.25-2.625-2.374v-.125c0-.125.126-.25.25-.25h.251c-1-.625-1.75-1.75-1.75-3 0-.124.125-.25.375-.25 0 0 .125 0 .25.126.125 0 .25.124.25.124C.875 4 .5 3.25.5 2.374.5 1.75.625 1 1 .624 1 .5 1.125.5 1.25.5s.125 0 .25.125c.5.5.75.875 1 1C4 2.875 5.878 3.75 7.753 3.875v-.376c0-2 1.626-3.5 3.626-3.5 1 0 1.876.25 2.5 1 .626-.125 1.252-.375 1.877-.75h.125c.125 0 .25.125.25.25 0 .25-.375 1-.625 1.25.125 0 .375-.125.625-.25h.25c.125 0 .25.125.25.25 0 0-.125 0-.125.124z" fill="#FFF" fill-rule="evenodd"/></svg>